<svg width="418" height="64" viewBox="0 0 418 64" fill="none" xmlns="http://www.w3.org/2000/svg">
<path d="M119.188 28.0001C119.147 28.0005 119.104 28.0018 119.062 28.004C117.386 28.1956 116.464 29.3693 116.33 30.4043C116.135 31.3436 116.76 32.5504 118.318 32.7611C118.544 32.7896 118.778 32.7766 118.999 32.7369C120.875 32.3205 121.714 30.8498 121.443 29.6317C121.364 28.8448 120.469 27.9893 119.188 28.0001ZM112.08 28.0505C111.037 28.0674 110.225 28.7674 110.06 29.4254C109.712 30.729 110.608 32.3487 112.659 32.7611C112.851 32.7887 113.05 32.7915 113.244 32.7716C114.631 32.6186 115.218 31.5896 115.16 30.7586C115.119 29.6627 114.258 28.3954 112.539 28.0873C112.382 28.0597 112.229 28.048 112.08 28.0505ZM123.731 31.753C121.927 31.8246 120.691 33.0159 120.514 34.1283C120.276 34.9304 120.922 36.0037 122.305 36.0679C124.233 36.0521 125.548 34.6881 125.603 33.5145C125.725 32.7383 125.034 31.7961 123.731 31.753ZM107.945 32.0176C107.178 32.0133 106.423 32.3176 106.172 32.8338C105.504 34.215 106.847 35.9644 109.057 36.2547C109.979 36.3591 110.789 35.8903 111.018 35.3261C111.502 34.1193 110.507 32.7182 108.823 32.1704C108.548 32.0684 108.245 32.0192 107.945 32.0176ZM116.03 34.4942C114.526 34.4963 112.998 35.0017 112.024 35.754C110.972 36.6308 110.111 37.6511 109.773 38.7576C109.364 39.5539 110.292 40.4707 111.578 40.4762C113.126 40.5044 114.455 39.8011 115.994 39.7491C117.299 39.6174 118.468 40.0666 119.642 40.361C120.641 40.6439 122.021 40.5354 122.532 39.8234C122.933 39.0981 122.342 38.3241 121.853 37.6799C120.855 36.6339 119.786 35.5346 118.149 34.8815C117.494 34.6125 116.765 34.4933 116.03 34.4942Z" fill="black"/>
<path d="M4.84 33.29C4.84 27.57 4.60167 22.5283 4.125 18.165C4.125 17.0283 4.60167 16.0383 5.555 15.195C6.50833 14.3517 7.77333 13.71 9.35 13.27C12.5033 12.4633 15.9683 12.06 19.745 12.06C24.6217 12.06 28.4533 13.1417 31.24 15.305C34.0633 17.4317 35.475 20.7133 35.475 25.15C35.475 29.5867 33.6783 33.1433 30.085 35.82C26.4917 38.4967 22.11 39.835 16.94 39.835C14.3 39.835 11.5317 39.285 8.635 38.185C8.45167 39.945 8.36 42.3283 8.36 45.335L8.415 48.03C8.415 48.91 8.39667 49.8267 8.36 50.78C8.17667 51.0367 7.975 51.22 7.755 51.33C7.535 51.44 7.37 51.5133 7.26 51.55C7.18667 51.6233 7.05833 51.6783 6.875 51.715C6.69167 51.7517 6.56333 51.77 6.49 51.77C6.27 51.8433 6.01333 51.88 5.72 51.88H4.785C4.71167 49.13 4.675 46.655 4.675 44.455L4.84 33.29ZM8.525 34.225C11.2017 36.0217 14.41 36.92 18.15 36.92C21.89 36.8833 25.0433 35.7283 27.61 33.455C30.1767 31.145 31.46 28.3217 31.46 24.985C31.46 21.6483 30.14 19.155 27.5 17.505C24.86 15.855 21.6883 15.03 17.985 15.03C14.3183 15.03 11.0733 15.8733 8.25 17.56C8.43333 19.9433 8.525 25.4983 8.525 34.225ZM42.0363 39.835C41.963 40.5683 41.9263 41.0633 41.9263 41.32C41.9263 43.52 42.5863 45.225 43.9063 46.435C45.263 47.645 46.858 48.25 48.6913 48.25C50.5247 48.25 52.0097 47.9933 53.1463 47.48C54.3197 46.9667 55.163 46.4167 55.6763 45.83C56.9963 44.18 58.2063 43.355 59.3063 43.355C59.7097 43.355 60.1863 43.465 60.7363 43.685C60.3697 45.4817 58.9763 47.1317 56.5563 48.635C54.173 50.1017 51.1663 50.835 47.5363 50.835C44.9697 50.835 42.7513 50.0283 40.8813 48.415C39.048 46.765 38.1313 44.5283 38.1313 41.705C38.1313 38.8817 38.6813 36.15 39.7813 33.51C40.918 30.8333 42.5313 28.56 44.6213 26.69C46.748 24.7833 48.893 23.83 51.0563 23.83C53.2563 23.83 55.0163 24.2883 56.3363 25.205C57.693 26.085 58.3713 27.3867 58.3713 29.11C58.3713 32.3 56.9413 34.94 54.0813 37.03C51.258 39.0833 48.2513 40.11 45.0613 40.11C44.218 40.11 43.2097 40.0183 42.0363 39.835ZM46.2163 38.02C47.9397 38.02 49.4797 37.47 50.8363 36.37C52.193 35.27 53.1463 34.115 53.6963 32.905C54.283 31.695 54.5763 30.595 54.5763 29.605C54.5763 28.615 54.1913 27.7533 53.4213 27.02C52.6513 26.25 51.753 25.865 50.7263 25.865C48.893 25.865 47.188 27.13 45.6113 29.66C44.0713 32.19 42.9713 34.8117 42.3113 37.525C43.9247 37.855 45.2263 38.02 46.2163 38.02ZM65.2824 27.955C63.6324 27.955 62.5141 27.5517 61.9274 26.745C61.9274 26.1583 62.1658 25.7 62.6424 25.37C63.1558 25.04 63.7058 24.8383 64.2924 24.765C64.8791 24.655 65.8324 24.5633 67.1524 24.49C67.2624 23.5 67.3174 22.235 67.3174 20.695C67.3541 19.1183 67.3908 17.78 67.4274 16.68C67.5374 13.7833 67.9774 12.005 68.7474 11.345C69.0774 11.0517 69.4258 10.905 69.7924 10.905C70.1958 10.905 70.5441 10.9417 70.8374 11.015C70.9474 13.655 71.0024 15.25 71.0024 15.8L70.6724 24.05C70.7458 24.0867 70.9474 24.105 71.2774 24.105L75.2374 23.94C78.0974 23.94 79.5274 24.38 79.5274 25.26C79.5274 26.5067 79.0141 27.24 77.9874 27.46C77.5108 27.57 76.9424 27.625 76.2824 27.625C75.6591 27.625 74.8341 27.5517 73.8074 27.405C72.8174 27.2217 72.1024 27.13 71.6624 27.13C71.2224 27.13 70.9291 27.1483 70.7824 27.185C70.6724 28.2483 70.6174 29.3117 70.6174 30.375C70.6174 31.4017 70.6358 32.7033 70.6724 34.28C70.7458 35.82 70.8924 37.6717 71.1124 39.835C71.3691 41.9983 71.9008 43.8683 72.7074 45.445C73.5141 46.985 74.5408 47.755 75.7874 47.755C76.4108 47.755 77.1441 47.5167 77.9874 47.04C78.8308 46.5267 79.4724 46.27 79.9124 46.27C80.3891 46.27 80.7924 46.38 81.1224 46.6C81.4891 46.7833 81.6724 47.0033 81.6724 47.26C81.6724 48.03 80.8841 48.7817 79.3074 49.515C77.7674 50.2117 76.4474 50.56 75.3474 50.56C71.3141 50.56 68.8024 46.7467 67.8124 39.12C67.5191 36.92 67.2991 33.1433 67.1524 27.79C66.5658 27.9 65.9424 27.955 65.2824 27.955ZM129.577 19.925C129.027 20.4383 128.55 20.805 128.147 21.025C127.743 21.245 127.34 21.2633 126.937 21.08C126.57 20.8967 126.313 20.75 126.167 20.64C126.02 20.53 125.727 20.1817 125.287 19.595C124.883 18.9717 124.627 18.5867 124.517 18.44C122.647 16.13 120.227 14.975 117.257 14.975C114.323 14.975 111.555 15.9283 108.952 17.835C106.385 19.705 104.313 22.18 102.737 25.26C101.16 28.34 100.372 31.5483 100.372 34.885C100.372 38.9917 101.728 42.3467 104.442 44.95C107.192 47.5533 110.822 48.855 115.332 48.855C119.878 48.855 123.857 47.59 127.267 45.06C127.817 44.6567 128.403 44.07 129.027 43.3C129.687 42.53 130.237 41.98 130.677 41.65C131.153 41.32 131.593 41.1733 131.997 41.21C132.437 41.2467 133.042 41.375 133.812 41.595C132.235 44.675 129.595 47.0767 125.892 48.8C122.225 50.4867 118.063 51.33 113.407 51.33C108.75 51.33 104.808 50.0283 101.582 47.425C98.3549 44.8217 96.7416 41.045 96.7416 36.095C96.7416 33.015 97.2549 30.045 98.2816 27.185C99.3082 24.2883 100.72 21.74 102.517 19.54C104.35 17.3033 106.623 15.525 109.337 14.205C112.087 12.885 115.057 12.225 118.247 12.225C123.93 12.225 127.707 14.7917 129.577 19.925ZM155.332 35.16L155.057 41.485C155.057 44.675 155.424 46.82 156.157 47.92C156.597 48.6533 157.202 49.02 157.972 49.02C158.192 49.02 158.504 48.965 158.907 48.855C159.677 48.635 160.319 48.745 160.832 49.185C160.575 50.4683 159.292 51.11 156.982 51.11C155.405 51.11 154.36 50.45 153.847 49.13C153.444 48.14 153.15 46.9117 152.967 45.445C152.784 43.9417 152.637 42.915 152.527 42.365C150.144 46.9117 147.834 49.68 145.597 50.67C144.46 51.1833 143.14 51.44 141.637 51.44C140.134 51.44 138.96 50.725 138.117 49.295C137.31 47.8283 136.907 45.7017 136.907 42.915C136.907 40.1283 137.365 37.2133 138.282 34.17C139.199 31.09 140.537 28.505 142.297 26.415C144.057 24.2883 145.982 23.225 148.072 23.225C151.079 23.225 153.077 24.4717 154.067 26.965C154.91 29.0917 155.332 31.8233 155.332 35.16ZM141.857 33.4C141.344 35.38 140.959 37.2683 140.702 39.065C140.445 40.825 140.317 42.4017 140.317 43.795C140.317 45.1517 140.592 46.325 141.142 47.315C141.729 48.305 142.48 48.8 143.397 48.8C145.377 48.8 147.284 46.93 149.117 43.19C150.95 39.45 151.867 35.9667 151.867 32.74C151.867 30.65 151.317 28.9267 150.217 27.57C149.484 26.69 148.512 26.25 147.302 26.25C146.129 26.25 145.047 26.9467 144.057 28.34C143.104 29.6967 142.37 31.3833 141.857 33.4ZM168.049 45.61L168.214 48.745C168.214 49.5517 167.976 50.12 167.499 50.45C167.059 50.7433 166.601 50.89 166.124 50.89C165.684 50.89 165.226 50.8167 164.749 50.67C163.942 46.4167 163.319 41.1183 162.879 34.775C162.476 28.4317 162.237 24.8383 162.164 23.995C162.714 23.4817 163.282 23.225 163.869 23.225C164.492 23.225 165.042 23.2983 165.519 23.445C165.666 24.5083 165.776 26.855 165.849 30.485C165.922 34.115 166.014 36.3883 166.124 37.305C166.637 34.225 167.554 31.3467 168.874 28.67C169.607 27.1667 170.561 25.975 171.734 25.095C172.944 24.1783 174.227 23.72 175.584 23.72C176.977 23.72 178.242 24.3433 179.379 25.59C180.552 26.8 181.139 27.9 181.139 28.89C181.139 29.2567 180.919 29.55 180.479 29.77C180.039 29.9533 179.544 30.045 178.994 30.045C178.481 30.045 178.077 29.8433 177.784 29.44C177.491 29.0367 177.289 28.5967 177.179 28.12C177.069 27.6067 176.831 27.1483 176.464 26.745C176.097 26.3417 175.602 26.14 174.979 26.14C173.329 26.14 171.917 27.625 170.744 30.595C168.947 35.0317 168.049 40.0367 168.049 45.61ZM186.465 39.835C186.392 40.5683 186.355 41.0633 186.355 41.32C186.355 43.52 187.015 45.225 188.335 46.435C189.692 47.645 191.287 48.25 193.12 48.25C194.953 48.25 196.438 47.9933 197.575 47.48C198.748 46.9667 199.592 46.4167 200.105 45.83C201.425 44.18 202.635 43.355 203.735 43.355C204.138 43.355 204.615 43.465 205.165 43.685C204.798 45.4817 203.405 47.1317 200.985 48.635C198.602 50.1017 195.595 50.835 191.965 50.835C189.398 50.835 187.18 50.0283 185.31 48.415C183.477 46.765 182.56 44.5283 182.56 41.705C182.56 38.8817 183.11 36.15 184.21 33.51C185.347 30.8333 186.96 28.56 189.05 26.69C191.177 24.7833 193.322 23.83 195.485 23.83C197.685 23.83 199.445 24.2883 200.765 25.205C202.122 26.085 202.8 27.3867 202.8 29.11C202.8 32.3 201.37 34.94 198.51 37.03C195.687 39.0833 192.68 40.11 189.49 40.11C188.647 40.11 187.638 40.0183 186.465 39.835ZM190.645 38.02C192.368 38.02 193.908 37.47 195.265 36.37C196.622 35.27 197.575 34.115 198.125 32.905C198.712 31.695 199.005 30.595 199.005 29.605C199.005 28.615 198.62 27.7533 197.85 27.02C197.08 26.25 196.182 25.865 195.155 25.865C193.322 25.865 191.617 27.13 190.04 29.66C188.5 32.19 187.4 34.8117 186.74 37.525C188.353 37.855 189.655 38.02 190.645 38.02ZM223.933 29.11C223.933 23.17 223.622 17.7433 222.998 12.83C222.998 12.06 223.53 11.675 224.593 11.675C225.657 11.675 227.068 12.7017 228.828 14.755C230.588 16.7717 232.275 18.99 233.888 21.41C235.502 23.83 237.115 26.0667 238.728 28.12C240.378 30.1367 241.552 31.145 242.248 31.145C242.945 31.145 244.063 30.0817 245.603 27.955C247.18 25.7917 248.72 23.445 250.223 20.915C251.763 18.3483 253.413 16.0017 255.173 13.875C256.97 11.7117 258.4 10.63 259.463 10.63C260.563 10.63 261.113 10.9233 261.113 11.51C261.443 16.02 261.608 20.0533 261.608 23.61C261.608 27.1667 261.59 30.0633 261.553 32.3C261.517 34.5 261.48 36.1133 261.443 37.14C261.443 38.13 261.388 40.4217 261.278 44.015C261.168 47.5717 261.113 49.6617 261.113 50.285C260.563 51.055 259.812 51.44 258.858 51.44C258.455 51.44 258.07 51.33 257.703 51.11C257.483 46.6 257.373 41.2833 257.373 35.16C257.373 29.0367 257.428 22.6933 257.538 16.13C256.805 16.7167 255.76 18.0917 254.403 20.255C253.083 22.3817 251.8 24.5083 250.553 26.635C249.307 28.725 247.895 30.6317 246.318 32.355C244.742 34.0417 243.275 34.885 241.918 34.885C240.562 34.885 239.003 33.895 237.243 31.915C235.52 29.935 233.595 27.2583 231.468 23.885C229.378 20.475 228.003 18.3483 227.343 17.505C227.527 20.585 227.618 23.7933 227.618 27.13C227.618 30.43 227.6 32.74 227.563 34.06C227.527 39.9267 227.417 45.2617 227.233 50.065C226.647 50.835 225.73 51.22 224.483 51.22C224.153 51.22 223.842 51.165 223.548 51.055C223.548 51.055 223.677 43.74 223.933 29.11ZM286.226 35.16L285.951 41.485C285.951 44.675 286.317 46.82 287.051 47.92C287.491 48.6533 288.096 49.02 288.866 49.02C289.086 49.02 289.397 48.965 289.801 48.855C290.571 48.635 291.212 48.745 291.726 49.185C291.469 50.4683 290.186 51.11 287.876 51.11C286.299 51.11 285.254 50.45 284.741 49.13C284.337 48.14 284.044 46.9117 283.861 45.445C283.677 43.9417 283.531 42.915 283.421 42.365C281.037 46.9117 278.727 49.68 276.491 50.67C275.354 51.1833 274.034 51.44 272.531 51.44C271.027 51.44 269.854 50.725 269.011 49.295C268.204 47.8283 267.801 45.7017 267.801 42.915C267.801 40.1283 268.259 37.2133 269.176 34.17C270.092 31.09 271.431 28.505 273.191 26.415C274.951 24.2883 276.876 23.225 278.966 23.225C281.972 23.225 283.971 24.4717 284.961 26.965C285.804 29.0917 286.226 31.8233 286.226 35.16ZM272.751 33.4C272.237 35.38 271.852 37.2683 271.596 39.065C271.339 40.825 271.211 42.4017 271.211 43.795C271.211 45.1517 271.486 46.325 272.036 47.315C272.622 48.305 273.374 48.8 274.291 48.8C276.271 48.8 278.177 46.93 280.011 43.19C281.844 39.45 282.761 35.9667 282.761 32.74C282.761 30.65 282.211 28.9267 281.111 27.57C280.377 26.69 279.406 26.25 278.196 26.25C277.022 26.25 275.941 26.9467 274.951 28.34C273.997 29.6967 273.264 31.3833 272.751 33.4ZM316.158 49.46C315.498 50.1567 314.746 50.505 313.903 50.505C312.326 50.505 311.153 49.6617 310.383 47.975C309.613 46.2883 309.154 44.235 309.008 41.815C308.898 39.395 308.824 36.975 308.788 34.555C308.751 32.135 308.549 30.0817 308.183 28.395C307.853 26.7083 307.211 25.865 306.258 25.865C304.974 25.865 303.874 27.02 302.958 29.33C302.078 31.64 301.454 34.2067 301.088 37.03C300.061 44.9133 299.071 49.3317 298.118 50.285C297.458 50.615 296.889 50.78 296.413 50.78C295.936 50.78 295.533 50.725 295.203 50.615C294.433 47.2417 293.938 41.43 293.718 33.18C293.644 29.0733 293.571 26.415 293.498 25.205C294.268 24.6917 294.928 24.435 295.478 24.435C296.028 24.435 296.468 24.49 296.798 24.6C296.981 26.1767 297.073 29.4033 297.073 34.28C297.109 39.1567 297.146 41.9617 297.183 42.695C297.366 41.925 297.586 40.6783 297.843 38.955C298.136 37.2317 298.393 35.82 298.613 34.72C298.833 33.5833 299.181 32.2633 299.658 30.76C300.134 29.2567 300.666 28.065 301.253 27.185C301.839 26.2683 302.646 25.4983 303.673 24.875C304.699 24.215 305.854 23.885 307.138 23.885C308.861 23.885 310.108 24.6733 310.878 26.25C311.684 27.79 312.124 29.715 312.198 32.025C312.271 34.335 312.308 36.6817 312.308 39.065C312.344 41.4483 312.638 43.63 313.188 45.61C313.774 47.59 314.764 48.8733 316.158 49.46ZM337.09 35.16L336.815 41.485C336.815 44.675 337.182 46.82 337.915 47.92C338.355 48.6533 338.96 49.02 339.73 49.02C339.95 49.02 340.262 48.965 340.665 48.855C341.435 48.635 342.077 48.745 342.59 49.185C342.333 50.4683 341.05 51.11 338.74 51.11C337.163 51.11 336.118 50.45 335.605 49.13C335.202 48.14 334.908 46.9117 334.725 45.445C334.542 43.9417 334.395 42.915 334.285 42.365C331.902 46.9117 329.592 49.68 327.355 50.67C326.218 51.1833 324.898 51.44 323.395 51.44C321.892 51.44 320.718 50.725 319.875 49.295C319.068 47.8283 318.665 45.7017 318.665 42.915C318.665 40.1283 319.123 37.2133 320.04 34.17C320.957 31.09 322.295 28.505 324.055 26.415C325.815 24.2883 327.74 23.225 329.83 23.225C332.837 23.225 334.835 24.4717 335.825 26.965C336.668 29.0917 337.09 31.8233 337.09 35.16ZM323.615 33.4C323.102 35.38 322.717 37.2683 322.46 39.065C322.203 40.825 322.075 42.4017 322.075 43.795C322.075 45.1517 322.35 46.325 322.9 47.315C323.487 48.305 324.238 48.8 325.155 48.8C327.135 48.8 329.042 46.93 330.875 43.19C332.708 39.45 333.625 35.9667 333.625 32.74C333.625 30.65 333.075 28.9267 331.975 27.57C331.242 26.69 330.27 26.25 329.06 26.25C327.887 26.25 326.805 26.9467 325.815 28.34C324.862 29.6967 324.128 31.3833 323.615 33.4ZM354.042 23.5C357.379 23.5 359.689 24.8567 360.972 27.57C361.669 29 362.237 30.3567 362.677 31.64C363.117 32.9233 363.41 34.6833 363.557 36.92C363.777 40.33 363.887 44.2167 363.887 48.58C363.887 52.9067 362.842 56.3533 360.752 58.92C358.699 61.5233 355.674 62.825 351.677 62.825C347.717 62.825 344.417 61.5417 341.777 58.975C342.51 58.2417 343.299 57.875 344.142 57.875C345.022 57.875 346.214 58.2417 347.717 58.975C349.257 59.745 350.889 60.13 352.612 60.13C354.335 60.13 355.765 59.7267 356.902 58.92C358.039 58.15 358.882 57.05 359.432 55.62C360.349 53.09 360.807 49.9733 360.807 46.27C360.807 45.72 360.752 43.685 360.642 40.165C359.652 43.1717 358.24 45.665 356.407 47.645C354.574 49.5883 352.502 50.56 350.192 50.56C347.882 50.56 346.177 49.5333 345.077 47.48C344.014 45.39 343.482 43.025 343.482 40.385C343.482 37.745 343.849 35.1783 344.582 32.685C345.315 30.155 346.507 27.9917 348.157 26.195C349.807 24.3983 351.769 23.5 354.042 23.5ZM348.212 31.86C347.735 33.4733 347.387 34.995 347.167 36.425C346.947 37.855 346.837 39.3033 346.837 40.77C346.837 42.2 347.13 43.795 347.717 45.555C348.34 47.315 349.239 48.195 350.412 48.195C352.722 48.195 354.775 46.4717 356.572 43.025C358.369 39.5417 359.267 36.04 359.267 32.52C359.267 31.31 358.699 29.9533 357.562 28.45C356.462 26.91 355.069 26.14 353.382 26.14C352.209 26.14 351.164 26.69 350.247 27.79C349.367 28.89 348.689 30.2467 348.212 31.86ZM372.842 39.835C372.769 40.5683 372.732 41.0633 372.732 41.32C372.732 43.52 373.392 45.225 374.712 46.435C376.069 47.645 377.664 48.25 379.497 48.25C381.33 48.25 382.815 47.9933 383.952 47.48C385.125 46.9667 385.969 46.4167 386.482 45.83C387.802 44.18 389.012 43.355 390.112 43.355C390.515 43.355 390.992 43.465 391.542 43.685C391.175 45.4817 389.782 47.1317 387.362 48.635C384.979 50.1017 381.972 50.835 378.342 50.835C375.775 50.835 373.557 50.0283 371.687 48.415C369.854 46.765 368.937 44.5283 368.937 41.705C368.937 38.8817 369.487 36.15 370.587 33.51C371.724 30.8333 373.337 28.56 375.427 26.69C377.554 24.7833 379.699 23.83 381.862 23.83C384.062 23.83 385.822 24.2883 387.142 25.205C388.499 26.085 389.177 27.3867 389.177 29.11C389.177 32.3 387.747 34.94 384.887 37.03C382.064 39.0833 379.057 40.11 375.867 40.11C375.024 40.11 374.015 40.0183 372.842 39.835ZM377.022 38.02C378.745 38.02 380.285 37.47 381.642 36.37C382.999 35.27 383.952 34.115 384.502 32.905C385.089 31.695 385.382 30.595 385.382 29.605C385.382 28.615 384.997 27.7533 384.227 27.02C383.457 26.25 382.559 25.865 381.532 25.865C379.699 25.865 377.994 27.13 376.417 29.66C374.877 32.19 373.777 34.8117 373.117 37.525C374.73 37.855 376.032 38.02 377.022 38.02ZM401.423 45.61L401.588 48.745C401.588 49.5517 401.35 50.12 400.873 50.45C400.433 50.7433 399.975 50.89 399.498 50.89C399.058 50.89 398.6 50.8167 398.123 50.67C397.316 46.4167 396.693 41.1183 396.253 34.775C395.85 28.4317 395.611 24.8383 395.538 23.995C396.088 23.4817 396.656 23.225 397.243 23.225C397.866 23.225 398.416 23.2983 398.893 23.445C399.04 24.5083 399.15 26.855 399.223 30.485C399.296 34.115 399.388 36.3883 399.498 37.305C400.011 34.225 400.928 31.3467 402.248 28.67C402.981 27.1667 403.935 25.975 405.108 25.095C406.318 24.1783 407.601 23.72 408.958 23.72C410.351 23.72 411.616 24.3433 412.753 25.59C413.926 26.8 414.513 27.9 414.513 28.89C414.513 29.2567 414.293 29.55 413.853 29.77C413.413 29.9533 412.918 30.045 412.368 30.045C411.855 30.045 411.451 29.8433 411.158 29.44C410.865 29.0367 410.663 28.5967 410.553 28.12C410.443 27.6067 410.205 27.1483 409.838 26.745C409.471 26.3417 408.976 26.14 408.353 26.14C406.703 26.14 405.291 27.625 404.118 30.595C402.321 35.0317 401.423 40.0367 401.423 45.61Z" fill="black"/>
</svg>
