<svg width="233" height="42" viewBox="0 0 233 42" fill="none" xmlns="http://www.w3.org/2000/svg">
<g filter="url(#filter0_d_88_151)">
<path d="M4.64 18.34C4.64 15.22 4.51 12.47 4.25 10.09C4.25 9.47 4.51 8.93 5.03 8.47C5.55 8.01 6.24 7.66 7.1 7.42C8.82 6.98 10.71 6.76 12.77 6.76C15.43 6.76 17.52 7.35 19.04 8.53C20.58 9.69 21.35 11.48 21.35 13.9C21.35 16.32 20.37 18.26 18.41 19.72C16.45 21.18 14.06 21.91 11.24 21.91C9.8 21.91 8.29 21.61 6.71 21.01C6.61 21.97 6.56 23.27 6.56 24.91L6.59 26.38C6.59 26.86 6.58 27.36 6.56 27.88C6.46 28.02 6.35 28.12 6.23 28.18C6.11 28.24 6.02 28.28 5.96 28.3C5.92 28.34 5.85 28.37 5.75 28.39C5.65 28.41 5.58 28.42 5.54 28.42C5.42 28.46 5.28 28.48 5.12 28.48H4.61C4.57 26.98 4.55 25.63 4.55 24.43L4.64 18.34ZM6.65 18.85C8.11 19.83 9.86 20.32 11.9 20.32C13.94 20.3 15.66 19.67 17.06 18.43C18.46 17.17 19.16 15.63 19.16 13.81C19.16 11.99 18.44 10.63 17 9.73C15.56 8.83 13.83 8.38 11.81 8.38C9.81 8.38 8.04 8.84 6.5 9.76C6.6 11.06 6.65 14.09 6.65 18.85ZM24.9289 21.91C24.8889 22.31 24.8689 22.58 24.8689 22.72C24.8689 23.92 25.2289 24.85 25.9489 25.51C26.6889 26.17 27.5589 26.5 28.5589 26.5C29.5589 26.5 30.3689 26.36 30.9889 26.08C31.6289 25.8 32.0889 25.5 32.3689 25.18C33.0889 24.28 33.7489 23.83 34.3489 23.83C34.5689 23.83 34.8289 23.89 35.1289 24.01C34.9289 24.99 34.1689 25.89 32.8489 26.71C31.5489 27.51 29.9089 27.91 27.9289 27.91C26.5289 27.91 25.3189 27.47 24.2989 26.59C23.2989 25.69 22.7989 24.47 22.7989 22.93C22.7989 21.39 23.0989 19.9 23.6989 18.46C24.3189 17 25.1989 15.76 26.3389 14.74C27.4989 13.7 28.6689 13.18 29.8489 13.18C31.0489 13.18 32.0089 13.43 32.7289 13.93C33.4689 14.41 33.8389 15.12 33.8389 16.06C33.8389 17.8 33.0589 19.24 31.4989 20.38C29.9589 21.5 28.3189 22.06 26.5789 22.06C26.1189 22.06 25.5689 22.01 24.9289 21.91ZM27.2089 20.92C28.1489 20.92 28.9889 20.62 29.7289 20.02C30.4689 19.42 30.9889 18.79 31.2889 18.13C31.6089 17.47 31.7689 16.87 31.7689 16.33C31.7689 15.79 31.5589 15.32 31.1389 14.92C30.7189 14.5 30.2289 14.29 29.6689 14.29C28.6689 14.29 27.7389 14.98 26.8789 16.36C26.0389 17.74 25.4389 19.17 25.0789 20.65C25.9589 20.83 26.6689 20.92 27.2089 20.92ZM37.6086 15.43C36.7086 15.43 36.0986 15.21 35.7786 14.77C35.7786 14.45 35.9086 14.2 36.1686 14.02C36.4486 13.84 36.7486 13.73 37.0686 13.69C37.3886 13.63 37.9086 13.58 38.6286 13.54C38.6886 13 38.7186 12.31 38.7186 11.47C38.7386 10.61 38.7586 9.88 38.7786 9.28C38.8386 7.7 39.0786 6.73 39.4986 6.37C39.6786 6.21 39.8686 6.13 40.0686 6.13C40.2886 6.13 40.4786 6.15 40.6386 6.19C40.6986 7.63 40.7286 8.5 40.7286 8.8L40.5486 13.3C40.5886 13.32 40.6986 13.33 40.8786 13.33L43.0386 13.24C44.5986 13.24 45.3786 13.48 45.3786 13.96C45.3786 14.64 45.0986 15.04 44.5386 15.16C44.2786 15.22 43.9686 15.25 43.6086 15.25C43.2686 15.25 42.8186 15.21 42.2586 15.13C41.7186 15.03 41.3286 14.98 41.0886 14.98C40.8486 14.98 40.6886 14.99 40.6086 15.01C40.5486 15.59 40.5186 16.17 40.5186 16.75C40.5186 17.31 40.5286 18.02 40.5486 18.88C40.5886 19.72 40.6686 20.73 40.7886 21.91C40.9286 23.09 41.2186 24.11 41.6586 24.97C42.0986 25.81 42.6586 26.23 43.3386 26.23C43.6786 26.23 44.0786 26.1 44.5386 25.84C44.9986 25.56 45.3486 25.42 45.5886 25.42C45.8486 25.42 46.0686 25.48 46.2486 25.6C46.4486 25.7 46.5486 25.82 46.5486 25.96C46.5486 26.38 46.1186 26.79 45.2586 27.19C44.4186 27.57 43.6986 27.76 43.0986 27.76C40.8986 27.76 39.5286 25.68 38.9886 21.52C38.8286 20.32 38.7086 18.26 38.6286 15.34C38.3086 15.4 37.9686 15.43 37.6086 15.43ZM72.6781 11.05C72.3781 11.33 72.1181 11.53 71.8981 11.65C71.6781 11.77 71.4581 11.78 71.2381 11.68C71.0381 11.58 70.8981 11.5 70.8181 11.44C70.7381 11.38 70.5781 11.19 70.3381 10.87C70.1181 10.53 69.9781 10.32 69.9181 10.24C68.8981 8.98 67.5781 8.35 65.9581 8.35C64.3581 8.35 62.8481 8.87 61.4281 9.91C60.0281 10.93 58.8981 12.28 58.0381 13.96C57.1781 15.64 56.7481 17.39 56.7481 19.21C56.7481 21.45 57.4881 23.28 58.9681 24.7C60.4681 26.12 62.4481 26.83 64.9081 26.83C67.3881 26.83 69.5581 26.14 71.4181 24.76C71.7181 24.54 72.0381 24.22 72.3781 23.8C72.7381 23.38 73.0381 23.08 73.2781 22.9C73.5381 22.72 73.7781 22.64 73.9981 22.66C74.2381 22.68 74.5681 22.75 74.9881 22.87C74.1281 24.55 72.6881 25.86 70.6681 26.8C68.6681 27.72 66.3981 28.18 63.8581 28.18C61.3181 28.18 59.1681 27.47 57.4081 26.05C55.6481 24.63 54.7681 22.57 54.7681 19.87C54.7681 18.19 55.0481 16.57 55.6081 15.01C56.1681 13.43 56.9381 12.04 57.9181 10.84C58.9181 9.62 60.1581 8.65 61.6381 7.93C63.1381 7.21 64.7581 6.85 66.4981 6.85C69.5981 6.85 71.6581 8.25 72.6781 11.05ZM86.7266 19.36L86.5766 22.81C86.5766 24.55 86.7766 25.72 87.1766 26.32C87.4166 26.72 87.7466 26.92 88.1666 26.92C88.2866 26.92 88.4566 26.89 88.6766 26.83C89.0966 26.71 89.4466 26.77 89.7266 27.01C89.5866 27.71 88.8866 28.06 87.6266 28.06C86.7666 28.06 86.1966 27.7 85.9166 26.98C85.6966 26.44 85.5366 25.77 85.4366 24.97C85.3366 24.15 85.2566 23.59 85.1966 23.29C83.8966 25.77 82.6366 27.28 81.4166 27.82C80.7966 28.1 80.0766 28.24 79.2566 28.24C78.4366 28.24 77.7966 27.85 77.3366 27.07C76.8966 26.27 76.6766 25.11 76.6766 23.59C76.6766 22.07 76.9266 20.48 77.4266 18.82C77.9266 17.14 78.6566 15.73 79.6166 14.59C80.5766 13.43 81.6266 12.85 82.7666 12.85C84.4066 12.85 85.4966 13.53 86.0366 14.89C86.4966 16.05 86.7266 17.54 86.7266 19.36ZM79.3766 18.4C79.0966 19.48 78.8866 20.51 78.7466 21.49C78.6066 22.45 78.5366 23.31 78.5366 24.07C78.5366 24.81 78.6866 25.45 78.9866 25.99C79.3066 26.53 79.7166 26.8 80.2166 26.8C81.2966 26.8 82.3366 25.78 83.3366 23.74C84.3366 21.7 84.8366 19.8 84.8366 18.04C84.8366 16.9 84.5366 15.96 83.9366 15.22C83.5366 14.74 83.0066 14.5 82.3466 14.5C81.7066 14.5 81.1166 14.88 80.5766 15.64C80.0566 16.38 79.6566 17.3 79.3766 18.4ZM93.6631 25.06L93.7531 26.77C93.7531 27.21 93.6231 27.52 93.3631 27.7C93.1231 27.86 92.8731 27.94 92.6131 27.94C92.3731 27.94 92.1231 27.9 91.8631 27.82C91.4231 25.5 91.0831 22.61 90.8431 19.15C90.6231 15.69 90.4931 13.73 90.4531 13.27C90.7531 12.99 91.0631 12.85 91.3831 12.85C91.7231 12.85 92.0231 12.89 92.2831 12.97C92.3631 13.55 92.4231 14.83 92.4631 16.81C92.5031 18.79 92.5531 20.03 92.6131 20.53C92.8931 18.85 93.3931 17.28 94.1131 15.82C94.5131 15 95.0331 14.35 95.6731 13.87C96.3331 13.37 97.0331 13.12 97.7731 13.12C98.5331 13.12 99.2231 13.46 99.8431 14.14C100.483 14.8 100.803 15.4 100.803 15.94C100.803 16.14 100.683 16.3 100.443 16.42C100.203 16.52 99.9331 16.57 99.6331 16.57C99.3531 16.57 99.1331 16.46 98.9731 16.24C98.8131 16.02 98.7031 15.78 98.6431 15.52C98.5831 15.24 98.4531 14.99 98.2531 14.77C98.0531 14.55 97.7831 14.44 97.4431 14.44C96.5431 14.44 95.7731 15.25 95.1331 16.87C94.1531 19.29 93.6631 22.02 93.6631 25.06ZM103.708 21.91C103.668 22.31 103.648 22.58 103.648 22.72C103.648 23.92 104.008 24.85 104.728 25.51C105.468 26.17 106.338 26.5 107.338 26.5C108.338 26.5 109.148 26.36 109.768 26.08C110.408 25.8 110.868 25.5 111.148 25.18C111.868 24.28 112.528 23.83 113.128 23.83C113.348 23.83 113.608 23.89 113.908 24.01C113.708 24.99 112.948 25.89 111.628 26.71C110.328 27.51 108.688 27.91 106.708 27.91C105.308 27.91 104.098 27.47 103.078 26.59C102.078 25.69 101.578 24.47 101.578 22.93C101.578 21.39 101.878 19.9 102.478 18.46C103.098 17 103.978 15.76 105.118 14.74C106.278 13.7 107.448 13.18 108.628 13.18C109.828 13.18 110.788 13.43 111.508 13.93C112.248 14.41 112.618 15.12 112.618 16.06C112.618 17.8 111.838 19.24 110.278 20.38C108.738 21.5 107.098 22.06 105.358 22.06C104.898 22.06 104.348 22.01 103.708 21.91ZM105.988 20.92C106.928 20.92 107.768 20.62 108.508 20.02C109.248 19.42 109.768 18.79 110.068 18.13C110.388 17.47 110.548 16.87 110.548 16.33C110.548 15.79 110.338 15.32 109.918 14.92C109.498 14.5 109.008 14.29 108.448 14.29C107.448 14.29 106.518 14.98 105.658 16.36C104.818 17.74 104.218 19.17 103.858 20.65C104.738 20.83 105.448 20.92 105.988 20.92ZM124.145 16.06C124.145 12.82 123.975 9.86 123.635 7.18C123.635 6.76 123.925 6.55 124.505 6.55C125.085 6.55 125.855 7.11 126.815 8.23C127.775 9.33 128.695 10.54 129.575 11.86C130.455 13.18 131.335 14.4 132.215 15.52C133.115 16.62 133.755 17.17 134.135 17.17C134.515 17.17 135.125 16.59 135.965 15.43C136.825 14.25 137.665 12.97 138.485 11.59C139.325 10.19 140.225 8.91 141.185 7.75C142.165 6.57 142.945 5.98 143.525 5.98C144.125 5.98 144.425 6.14 144.425 6.46C144.605 8.92 144.695 11.12 144.695 13.06C144.695 15 144.685 16.58 144.665 17.8C144.645 19 144.625 19.88 144.605 20.44C144.605 20.98 144.575 22.23 144.515 24.19C144.455 26.13 144.425 27.27 144.425 27.61C144.125 28.03 143.715 28.24 143.195 28.24C142.975 28.24 142.765 28.18 142.565 28.06C142.445 25.6 142.385 22.7 142.385 19.36C142.385 16.02 142.415 12.56 142.475 8.98C142.075 9.3 141.505 10.05 140.765 11.23C140.045 12.39 139.345 13.55 138.665 14.71C137.985 15.85 137.215 16.89 136.355 17.83C135.495 18.75 134.695 19.21 133.955 19.21C133.215 19.21 132.365 18.67 131.405 17.59C130.465 16.51 129.415 15.05 128.255 13.21C127.115 11.35 126.365 10.19 126.005 9.73C126.105 11.41 126.155 13.16 126.155 14.98C126.155 16.78 126.145 18.04 126.125 18.76C126.105 21.96 126.045 24.87 125.945 27.49C125.625 27.91 125.125 28.12 124.445 28.12C124.265 28.12 124.095 28.09 123.935 28.03C123.935 28.03 124.005 24.04 124.145 16.06ZM158.123 19.36L157.973 22.81C157.973 24.55 158.173 25.72 158.573 26.32C158.813 26.72 159.143 26.92 159.563 26.92C159.683 26.92 159.853 26.89 160.073 26.83C160.493 26.71 160.843 26.77 161.123 27.01C160.983 27.71 160.283 28.06 159.023 28.06C158.163 28.06 157.593 27.7 157.313 26.98C157.093 26.44 156.933 25.77 156.833 24.97C156.733 24.15 156.653 23.59 156.593 23.29C155.293 25.77 154.033 27.28 152.813 27.82C152.193 28.1 151.473 28.24 150.653 28.24C149.833 28.24 149.193 27.85 148.733 27.07C148.293 26.27 148.073 25.11 148.073 23.59C148.073 22.07 148.323 20.48 148.823 18.82C149.323 17.14 150.053 15.73 151.013 14.59C151.973 13.43 153.023 12.85 154.163 12.85C155.803 12.85 156.893 13.53 157.433 14.89C157.893 16.05 158.123 17.54 158.123 19.36ZM150.773 18.4C150.493 19.48 150.283 20.51 150.143 21.49C150.003 22.45 149.933 23.31 149.933 24.07C149.933 24.81 150.083 25.45 150.383 25.99C150.703 26.53 151.113 26.8 151.613 26.8C152.693 26.8 153.733 25.78 154.733 23.74C155.733 21.7 156.233 19.8 156.233 18.04C156.233 16.9 155.933 15.96 155.333 15.22C154.933 14.74 154.403 14.5 153.743 14.5C153.103 14.5 152.513 14.88 151.973 15.64C151.453 16.38 151.053 17.3 150.773 18.4ZM174.45 27.16C174.09 27.54 173.68 27.73 173.22 27.73C172.36 27.73 171.72 27.27 171.3 26.35C170.88 25.43 170.63 24.31 170.55 22.99C170.49 21.67 170.45 20.35 170.43 19.03C170.41 17.71 170.3 16.59 170.1 15.67C169.92 14.75 169.57 14.29 169.05 14.29C168.35 14.29 167.75 14.92 167.25 16.18C166.77 17.44 166.43 18.84 166.23 20.38C165.67 24.68 165.13 27.09 164.61 27.61C164.25 27.79 163.94 27.88 163.68 27.88C163.42 27.88 163.2 27.85 163.02 27.79C162.6 25.95 162.33 22.78 162.21 18.28C162.17 16.04 162.13 14.59 162.09 13.93C162.51 13.65 162.87 13.51 163.17 13.51C163.47 13.51 163.71 13.54 163.89 13.6C163.99 14.46 164.04 16.22 164.04 18.88C164.06 21.54 164.08 23.07 164.1 23.47C164.2 23.05 164.32 22.37 164.46 21.43C164.62 20.49 164.76 19.72 164.88 19.12C165 18.5 165.19 17.78 165.45 16.96C165.71 16.14 166 15.49 166.32 15.01C166.64 14.51 167.08 14.09 167.64 13.75C168.2 13.39 168.83 13.21 169.53 13.21C170.47 13.21 171.15 13.64 171.57 14.5C172.01 15.34 172.25 16.39 172.29 17.65C172.33 18.91 172.35 20.19 172.35 21.49C172.37 22.79 172.53 23.98 172.83 25.06C173.15 26.14 173.69 26.84 174.45 27.16ZM185.867 19.36L185.717 22.81C185.717 24.55 185.917 25.72 186.317 26.32C186.557 26.72 186.887 26.92 187.307 26.92C187.427 26.92 187.597 26.89 187.817 26.83C188.237 26.71 188.587 26.77 188.867 27.01C188.727 27.71 188.027 28.06 186.767 28.06C185.907 28.06 185.337 27.7 185.057 26.98C184.837 26.44 184.677 25.77 184.577 24.97C184.477 24.15 184.397 23.59 184.337 23.29C183.037 25.77 181.777 27.28 180.557 27.82C179.937 28.1 179.217 28.24 178.397 28.24C177.577 28.24 176.937 27.85 176.477 27.07C176.037 26.27 175.817 25.11 175.817 23.59C175.817 22.07 176.067 20.48 176.567 18.82C177.067 17.14 177.797 15.73 178.757 14.59C179.717 13.43 180.767 12.85 181.907 12.85C183.547 12.85 184.637 13.53 185.177 14.89C185.637 16.05 185.867 17.54 185.867 19.36ZM178.517 18.4C178.237 19.48 178.027 20.51 177.887 21.49C177.747 22.45 177.677 23.31 177.677 24.07C177.677 24.81 177.827 25.45 178.127 25.99C178.447 26.53 178.857 26.8 179.357 26.8C180.437 26.8 181.477 25.78 182.477 23.74C183.477 21.7 183.977 19.8 183.977 18.04C183.977 16.9 183.677 15.96 183.077 15.22C182.677 14.74 182.147 14.5 181.487 14.5C180.847 14.5 180.257 14.88 179.717 15.64C179.197 16.38 178.797 17.3 178.517 18.4ZM195.114 13C196.934 13 198.194 13.74 198.894 15.22C199.274 16 199.584 16.74 199.824 17.44C200.064 18.14 200.224 19.1 200.304 20.32C200.424 22.18 200.484 24.3 200.484 26.68C200.484 29.04 199.914 30.92 198.774 32.32C197.654 33.74 196.004 34.45 193.824 34.45C191.664 34.45 189.864 33.75 188.424 32.35C188.824 31.95 189.254 31.75 189.714 31.75C190.194 31.75 190.844 31.95 191.664 32.35C192.504 32.77 193.394 32.98 194.334 32.98C195.274 32.98 196.054 32.76 196.674 32.32C197.294 31.9 197.754 31.3 198.054 30.52C198.554 29.14 198.804 27.44 198.804 25.42C198.804 25.12 198.774 24.01 198.714 22.09C198.174 23.73 197.404 25.09 196.404 26.17C195.404 27.23 194.274 27.76 193.014 27.76C191.754 27.76 190.824 27.2 190.224 26.08C189.644 24.94 189.354 23.65 189.354 22.21C189.354 20.77 189.554 19.37 189.954 18.01C190.354 16.63 191.004 15.45 191.904 14.47C192.804 13.49 193.874 13 195.114 13ZM191.934 17.56C191.674 18.44 191.484 19.27 191.364 20.05C191.244 20.83 191.184 21.62 191.184 22.42C191.184 23.2 191.344 24.07 191.664 25.03C192.004 25.99 192.494 26.47 193.134 26.47C194.394 26.47 195.514 25.53 196.494 23.65C197.474 21.75 197.964 19.84 197.964 17.92C197.964 17.26 197.654 16.52 197.034 15.7C196.434 14.86 195.674 14.44 194.754 14.44C194.114 14.44 193.544 14.74 193.044 15.34C192.564 15.94 192.194 16.68 191.934 17.56ZM205.368 21.91C205.328 22.31 205.308 22.58 205.308 22.72C205.308 23.92 205.668 24.85 206.388 25.51C207.128 26.17 207.998 26.5 208.998 26.5C209.998 26.5 210.808 26.36 211.428 26.08C212.068 25.8 212.528 25.5 212.808 25.18C213.528 24.28 214.188 23.83 214.788 23.83C215.008 23.83 215.268 23.89 215.568 24.01C215.368 24.99 214.608 25.89 213.288 26.71C211.988 27.51 210.348 27.91 208.368 27.91C206.968 27.91 205.758 27.47 204.738 26.59C203.738 25.69 203.238 24.47 203.238 22.93C203.238 21.39 203.538 19.9 204.138 18.46C204.758 17 205.638 15.76 206.778 14.74C207.938 13.7 209.108 13.18 210.288 13.18C211.488 13.18 212.448 13.43 213.168 13.93C213.908 14.41 214.278 15.12 214.278 16.06C214.278 17.8 213.498 19.24 211.938 20.38C210.398 21.5 208.758 22.06 207.018 22.06C206.558 22.06 206.008 22.01 205.368 21.91ZM207.648 20.92C208.588 20.92 209.428 20.62 210.168 20.02C210.908 19.42 211.428 18.79 211.728 18.13C212.048 17.47 212.208 16.87 212.208 16.33C212.208 15.79 211.998 15.32 211.578 14.92C211.158 14.5 210.668 14.29 210.108 14.29C209.108 14.29 208.178 14.98 207.318 16.36C206.478 17.74 205.878 19.17 205.518 20.65C206.398 20.83 207.108 20.92 207.648 20.92ZM220.958 25.06L221.048 26.77C221.048 27.21 220.918 27.52 220.658 27.7C220.418 27.86 220.168 27.94 219.908 27.94C219.668 27.94 219.418 27.9 219.158 27.82C218.718 25.5 218.378 22.61 218.138 19.15C217.918 15.69 217.788 13.73 217.748 13.27C218.048 12.99 218.358 12.85 218.678 12.85C219.018 12.85 219.318 12.89 219.578 12.97C219.658 13.55 219.718 14.83 219.758 16.81C219.798 18.79 219.848 20.03 219.908 20.53C220.188 18.85 220.688 17.28 221.408 15.82C221.808 15 222.328 14.35 222.968 13.87C223.628 13.37 224.328 13.12 225.068 13.12C225.828 13.12 226.518 13.46 227.138 14.14C227.778 14.8 228.098 15.4 228.098 15.94C228.098 16.14 227.978 16.3 227.738 16.42C227.498 16.52 227.228 16.57 226.928 16.57C226.648 16.57 226.428 16.46 226.268 16.24C226.108 16.02 225.998 15.78 225.938 15.52C225.878 15.24 225.748 14.99 225.548 14.77C225.348 14.55 225.078 14.44 224.738 14.44C223.838 14.44 223.068 15.25 222.428 16.87C221.448 19.29 220.958 22.02 220.958 25.06Z" fill="black"/>
</g>
<path d="M67.975 13.432C67.947 13.4322 67.918 13.4333 67.8894 13.435C66.7484 13.5867 66.121 14.5161 66.0302 15.3357C65.8974 16.0795 66.3229 17.0351 67.3829 17.2019C67.5368 17.2245 67.6963 17.2142 67.8467 17.1828C69.1233 16.853 69.6944 15.6884 69.5099 14.7239C69.4561 14.1009 68.8465 13.4234 67.975 13.432ZM63.1378 13.4718C62.4281 13.4852 61.8755 14.0395 61.7631 14.5605C61.5261 15.5928 62.1357 16.8754 63.5318 17.2019C63.6627 17.2237 63.7977 17.226 63.9299 17.2103C64.8737 17.0891 65.2734 16.2743 65.2339 15.6163C65.2056 14.7485 64.6201 13.745 63.4502 13.501C63.3432 13.4791 63.2391 13.4699 63.1378 13.4718ZM71.0665 16.4037C69.8393 16.4604 68.9978 17.4037 68.8777 18.2845C68.7156 18.9197 69.1551 19.7695 70.0963 19.8203C71.4083 19.8078 72.3036 18.7278 72.3406 17.7985C72.4237 17.1839 71.9536 16.4378 71.0665 16.4037ZM60.3237 16.6132C59.8015 16.6098 59.288 16.8507 59.1174 17.2594C58.6621 18.3532 59.5763 19.7384 61.0802 19.9683C61.7078 20.051 62.2592 19.6798 62.415 19.233C62.7447 18.2774 62.0673 17.1679 60.9209 16.7342C60.7342 16.6534 60.5281 16.6144 60.3237 16.6132ZM65.826 18.5742C64.8023 18.576 63.7627 18.9761 63.0999 19.5718C62.3839 20.2661 61.7974 21.074 61.568 21.9502C61.2892 22.5807 61.921 23.3067 62.7963 23.3111C63.8493 23.3334 64.7542 22.7765 65.8012 22.7353C66.6895 22.631 67.4848 22.9867 68.2837 23.2198C68.9637 23.4438 69.9033 23.3579 70.2505 22.7941C70.5235 22.2198 70.1215 21.6069 69.7886 21.0969C69.1096 20.2686 68.3818 19.3981 67.2683 18.8809C66.822 18.668 66.3261 18.5735 65.826 18.5742Z" fill="black"/>
<defs>
<filter id="filter0_d_88_151" x="0.25" y="5.97998" width="231.848" height="36.47" filterUnits="userSpaceOnUse" color-interpolation-filters="sRGB">
<feFlood flood-opacity="0" result="BackgroundImageFix"/>
<feColorMatrix in="SourceAlpha" type="matrix" values="0 0 0 0 0 0 0 0 0 0 0 0 0 0 0 0 0 0 127 0" result="hardAlpha"/>
<feOffset dy="4"/>
<feGaussianBlur stdDeviation="2"/>
<feComposite in2="hardAlpha" operator="out"/>
<feColorMatrix type="matrix" values="0 0 0 0 0 0 0 0 0 0 0 0 0 0 0 0 0 0 0.25 0"/>
<feBlend mode="normal" in2="BackgroundImageFix" result="effect1_dropShadow_88_151"/>
<feBlend mode="normal" in="SourceGraphic" in2="effect1_dropShadow_88_151" result="shape"/>
</filter>
</defs>
</svg>
